<svg width="23" height="24" viewBox="0 0 23 24" fill="none" xmlns="http://www.w3.org/2000/svg">
<path d="M4.39854 18.6707C3.95958 18.6707 3.59335 18.5239 3.29986 18.2304C3.00637 17.9369 2.85931 17.5704 2.85867 17.1308V6.87007C2.85867 6.43111 3.00574 6.06488 3.29986 5.77139C3.59399 5.4779 3.9599 5.33084 4.39759 5.3302H18.4718C18.9101 5.3302 19.276 5.47726 19.5695 5.77139C19.863 6.06551 20.0101 6.43174 20.0107 6.87007V17.1317C20.0107 17.5701 19.8636 17.9363 19.5695 18.2304C19.2754 18.5246 18.9095 18.6713 18.4718 18.6707H4.39854ZM11.4347 12.111L3.81156 7.1264V17.1317C3.81156 17.3026 3.86651 17.443 3.97641 17.5529C4.08631 17.6628 4.22702 17.7178 4.39854 17.7178H18.4718C18.6427 17.7178 18.7831 17.6628 18.893 17.5529C19.0029 17.443 19.0578 17.3023 19.0578 17.1308V7.12545L11.4347 12.111ZM11.4347 11.0475L18.7643 6.28309H4.10505L11.4347 11.0475ZM3.81156 7.1264V6.28309V17.1317C3.81156 17.3026 3.86651 17.443 3.97641 17.5529C4.08631 17.6628 4.22702 17.7178 4.39854 17.7178H3.81156V7.1264Z" fill="#797979"/>
</svg>
