<svg width="24" height="24" viewBox="0 0 24 24" fill="none" xmlns="http://www.w3.org/2000/svg">
<path d="M12.28 10.8733C11.5302 10.8654 10.7995 10.6359 10.1799 10.2136C9.56024 9.79123 9.07942 9.19503 8.79793 8.50002C8.51644 7.805 8.44687 7.04223 8.59798 6.30776C8.74909 5.57329 9.11412 4.89994 9.64712 4.37249C10.1801 3.84505 10.8573 3.48709 11.5933 3.34367C12.3293 3.20026 13.0913 3.27782 13.7833 3.56657C14.4753 3.85532 15.0665 4.34236 15.4823 4.96637C15.8981 5.59038 16.12 6.32346 16.12 7.07332C16.113 8.0859 15.7049 9.05441 14.9851 9.76667C14.2653 10.4789 13.2926 10.8769 12.28 10.8733ZM12.28 4.60665C11.7939 4.61454 11.321 4.76588 10.9207 5.04167C10.5203 5.31746 10.2104 5.70539 10.0298 6.15676C9.84926 6.60812 9.80608 7.10277 9.90573 7.5786C10.0054 8.05442 10.2434 8.49018 10.5899 8.83116C10.9364 9.17214 11.376 9.40313 11.8533 9.49511C12.3307 9.58709 12.8246 9.53596 13.273 9.34815C13.7214 9.16033 14.1043 8.84421 14.3736 8.43948C14.6429 8.03475 14.7866 7.55946 14.7867 7.07332C14.7796 6.41436 14.512 5.78499 14.0423 5.32278C13.5726 4.86056 12.939 4.60309 12.28 4.60665Z" fill="white"/>
<path d="M12.2802 10.8733C11.5304 10.8654 10.7997 10.6359 10.18 10.2136C9.56041 9.79123 9.07959 9.19503 8.7981 8.50002C8.51661 7.805 8.44704 7.04223 8.59815 6.30776C8.74926 5.57329 9.1143 4.89994 9.64729 4.37249C10.1803 3.84505 10.8574 3.48709 11.5934 3.34367C12.3295 3.20026 13.0914 3.27782 13.7835 3.56657C14.4755 3.85532 15.0666 4.34236 15.4825 4.96637C15.8983 5.59038 16.1202 6.32346 16.1202 7.07332C16.1131 8.0859 15.705 9.05441 14.9853 9.76667C14.2655 10.4789 13.2928 10.8769 12.2802 10.8733ZM12.2802 4.60665C11.7941 4.61454 11.3212 4.76588 10.9209 5.04167C10.5205 5.31746 10.2106 5.70539 10.03 6.15676C9.84943 6.60812 9.80625 7.10277 9.9059 7.5786C10.0055 8.05442 10.2436 8.49018 10.5901 8.83116C10.9366 9.17214 11.3761 9.40313 11.8535 9.49511C12.3309 9.58709 12.8248 9.53596 13.2732 9.34815C13.7216 9.16033 14.1045 8.84421 14.3738 8.43948C14.6431 8.03475 14.7868 7.55946 14.7869 7.07332C14.7798 6.41436 14.5122 5.78499 14.0425 5.32278C13.5728 4.86056 12.9392 4.60309 12.2802 4.60665ZM14.6069 11.7667C11.6499 11.2521 8.60577 11.7204 5.94019 13.1C5.75098 13.205 5.5943 13.3601 5.4873 13.5483C5.3803 13.7364 5.3271 13.9503 5.33353 14.1667V16.54C5.33353 16.7168 5.40377 16.8864 5.52879 17.0114C5.65381 17.1364 5.82338 17.2067 6.00019 17.2067C6.17701 17.2067 6.34657 17.1364 6.4716 17.0114C6.59662 16.8864 6.66686 16.7168 6.66686 16.54V14.2533C9.13864 13.0131 11.9495 12.6196 14.6669 13.1333L14.6069 11.7667Z" fill="white"/>
<path d="M21.9998 14.6667H17.5332V13.68C17.5332 13.5032 17.4629 13.3336 17.3379 13.2086C17.2129 13.0836 17.0433 13.0133 16.8665 13.0133C16.6897 13.0133 16.5201 13.0836 16.3951 13.2086C16.2701 13.3336 16.1998 13.5032 16.1998 13.68V14.6667H11.3332C11.1564 14.6667 10.9868 14.7369 10.8618 14.8619C10.7367 14.987 10.6665 15.1565 10.6665 15.3333V22C10.6665 22.1768 10.7367 22.3464 10.8618 22.4714C10.9868 22.5964 11.1564 22.6667 11.3332 22.6667H21.9998C22.1766 22.6667 22.3462 22.5964 22.4712 22.4714C22.5963 22.3464 22.6665 22.1768 22.6665 22V15.3333C22.6665 15.1565 22.5963 14.987 22.4712 14.8619C22.3462 14.7369 22.1766 14.6667 21.9998 14.6667ZM21.3332 21.3333H11.9998V16H16.1998V16.2733C16.1998 16.4501 16.2701 16.6197 16.3951 16.7447C16.5201 16.8698 16.6897 16.94 16.8665 16.94C17.0433 16.94 17.2129 16.8698 17.3379 16.7447C17.4629 16.6197 17.5332 16.4501 17.5332 16.2733V16H21.3332V21.3333Z" fill="white"/>
<path d="M14.5402 18.28H18.5135V19.2133H14.5402V18.28ZM7.22683 8.16C5.38113 8.19088 3.56743 8.64715 1.92683 9.49333C1.7484 9.58758 1.59895 9.72854 1.49444 9.90116C1.38993 10.0738 1.3343 10.2715 1.3335 10.4733V12.54C1.3335 12.7168 1.40373 12.8864 1.52876 13.0114C1.65378 13.1364 1.82335 13.2067 2.00016 13.2067C2.17697 13.2067 2.34654 13.1364 2.47157 13.0114C2.59659 12.8864 2.66683 12.7168 2.66683 12.54V10.6067C4.23436 9.82641 5.96987 9.44405 7.72016 9.49333C7.49134 9.07543 7.32512 8.62619 7.22683 8.16ZM22.0735 9.48666C20.6021 8.7148 18.985 8.26056 17.3268 8.15333C17.2288 8.61866 17.065 9.06762 16.8402 9.48666C18.4022 9.52427 19.9366 9.90673 21.3335 10.6067V12.54C21.3335 12.7168 21.4037 12.8864 21.5288 13.0114C21.6538 13.1364 21.8234 13.2067 22.0002 13.2067C22.177 13.2067 22.3465 13.1364 22.4716 13.0114C22.5966 12.8864 22.6668 12.7168 22.6668 12.54V10.4733C22.6672 10.2704 22.6122 10.0712 22.5076 9.89735C22.403 9.72345 22.2529 9.58144 22.0735 9.48666ZM7.10683 7.07333V6.62666C6.58457 6.55677 6.1094 6.28815 5.78021 5.87673C5.45103 5.4653 5.2932 4.94277 5.33959 4.4179C5.38597 3.89304 5.633 3.40628 6.02924 3.05897C6.42549 2.71165 6.94041 2.53054 7.46683 2.55333C8.01437 2.55234 8.54065 2.76524 8.9335 3.14666C9.28025 2.86101 9.6609 2.61918 10.0668 2.42666C9.61324 1.9051 9.01225 1.53322 8.34309 1.36004C7.67392 1.18686 6.96798 1.22051 6.31832 1.45656C5.66866 1.6926 5.10578 2.11996 4.70385 2.6823C4.30192 3.24464 4.07982 3.91557 4.06683 4.60666C4.08082 5.4525 4.40963 6.26274 4.98903 6.87913C5.56843 7.49551 6.35681 7.87376 7.20016 7.94C7.14354 7.65443 7.11231 7.36441 7.10683 7.07333ZM16.5135 1.22C16.0554 1.2201 15.6018 1.31153 15.1794 1.48896C14.7571 1.66639 14.3743 1.92624 14.0535 2.25333C14.5038 2.41763 14.9298 2.64187 15.3202 2.92C15.6314 2.70395 15.9954 2.57642 16.3734 2.551C16.7515 2.52559 17.1293 2.60324 17.4666 2.77568C17.804 2.94812 18.0882 3.20888 18.289 3.53016C18.4898 3.85144 18.5997 4.2212 18.6068 4.6C18.6026 4.98909 18.4883 5.36904 18.2771 5.69585C18.0659 6.02266 17.7665 6.28298 17.4135 6.44666C17.4406 6.65221 17.454 6.85934 17.4535 7.06666C17.4514 7.33463 17.4291 7.60205 17.3868 7.86666C18.1131 7.67995 18.7573 7.25838 19.2191 6.66757C19.6808 6.07676 19.9344 5.34985 19.9402 4.6C19.9314 3.6982 19.566 2.83653 18.924 2.20322C18.2819 1.56991 17.4153 1.21643 16.5135 1.22Z" fill="white"/>
</svg>
