<svg width="24" height="24" viewBox="0 0 24 24" fill="none" xmlns="http://www.w3.org/2000/svg">
<path d="M12.28 10.8733C11.5302 10.8654 10.7995 10.6359 10.1799 10.2136C9.56024 9.79123 9.07942 9.19503 8.79793 8.50002C8.51644 7.805 8.44687 7.04223 8.59798 6.30776C8.74909 5.57329 9.11412 4.89994 9.64712 4.37249C10.1801 3.84505 10.8573 3.48709 11.5933 3.34367C12.3293 3.20026 13.0913 3.27782 13.7833 3.56657C14.4753 3.85532 15.0665 4.34236 15.4823 4.96637C15.8981 5.59038 16.12 6.32346 16.12 7.07332C16.113 8.0859 15.7049 9.05441 14.9851 9.76667C14.2653 10.4789 13.2926 10.8769 12.28 10.8733ZM12.28 4.60665C11.7939 4.61454 11.321 4.76588 10.9207 5.04167C10.5203 5.31746 10.2104 5.70539 10.0298 6.15676C9.84926 6.60812 9.80608 7.10277 9.90573 7.5786C10.0054 8.05442 10.2434 8.49018 10.5899 8.83116C10.9364 9.17214 11.376 9.40313 11.8533 9.49511C12.3307 9.58709 12.8246 9.53596 13.273 9.34815C13.7214 9.16033 14.1043 8.84421 14.3736 8.43948C14.6429 8.03475 14.7866 7.55946 14.7867 7.07332C14.7796 6.41436 14.512 5.78499 14.0423 5.32278C13.5726 4.86056 12.939 4.60309 12.28 4.60665Z" fill="black"/>
<path d="M12.28 10.8733C11.5301 10.8654 10.7994 10.6359 10.1798 10.2136C9.56017 9.79123 9.07935 9.19503 8.79786 8.50002C8.51637 7.805 8.4468 7.04223 8.59791 6.30776C8.74902 5.57329 9.11405 4.89994 9.64705 4.37249C10.18 3.84505 10.8572 3.48709 11.5932 3.34367C12.3292 3.20026 13.0912 3.27782 13.7832 3.56657C14.4753 3.85532 15.0664 4.34236 15.4822 4.96637C15.898 5.59038 16.1199 6.32346 16.12 7.07332C16.1129 8.0859 15.7048 9.05441 14.985 9.76667C14.2653 10.4789 13.2925 10.8769 12.28 10.8733ZM12.28 4.60665C11.7939 4.61454 11.321 4.76588 10.9206 5.04167C10.5203 5.31746 10.2103 5.70539 10.0298 6.15676C9.84919 6.60812 9.80601 7.10277 9.90566 7.5786C10.0053 8.05442 10.2433 8.49018 10.5898 8.83116C10.9363 9.17214 11.3759 9.40313 11.8532 9.49511C12.3306 9.58709 12.8245 9.53596 13.2729 9.34815C13.7213 9.16033 14.1042 8.84421 14.3735 8.43948C14.6428 8.03475 14.7866 7.55946 14.7866 7.07332C14.7796 6.41436 14.512 5.78499 14.0422 5.32278C13.5725 4.86056 12.9389 4.60309 12.28 4.60665ZM14.6066 11.7667C11.6496 11.2521 8.60552 11.7204 5.93995 13.1C5.75073 13.205 5.59405 13.3601 5.48706 13.5483C5.38006 13.7364 5.32686 13.9503 5.33328 14.1667V16.54C5.33328 16.7168 5.40352 16.8864 5.52855 17.0114C5.65357 17.1364 5.82314 17.2067 5.99995 17.2067C6.17676 17.2067 6.34633 17.1364 6.47135 17.0114C6.59638 16.8864 6.66662 16.7168 6.66662 16.54V14.2533C9.1384 13.0131 11.9493 12.6196 14.6666 13.1333L14.6066 11.7667Z" fill="black"/>
<path d="M22.0001 14.6667H17.5334V13.68C17.5334 13.5032 17.4632 13.3336 17.3382 13.2086C17.2131 13.0836 17.0436 13.0133 16.8667 13.0133C16.6899 13.0133 16.5204 13.0836 16.3953 13.2086C16.2703 13.3336 16.2001 13.5032 16.2001 13.68V14.6667H11.3334C11.1566 14.6667 10.987 14.7369 10.862 14.8619C10.737 14.987 10.6667 15.1565 10.6667 15.3333V22C10.6667 22.1768 10.737 22.3464 10.862 22.4714C10.987 22.5964 11.1566 22.6667 11.3334 22.6667H22.0001C22.1769 22.6667 22.3465 22.5964 22.4715 22.4714C22.5965 22.3464 22.6667 22.1768 22.6667 22V15.3333C22.6667 15.1565 22.5965 14.987 22.4715 14.8619C22.3465 14.7369 22.1769 14.6667 22.0001 14.6667ZM21.3334 21.3333H12.0001V16H16.2001V16.2733C16.2001 16.4501 16.2703 16.6197 16.3953 16.7447C16.5204 16.8698 16.6899 16.94 16.8667 16.94C17.0436 16.94 17.2131 16.8698 17.3382 16.7447C17.4632 16.6197 17.5334 16.4501 17.5334 16.2733V16H21.3334V21.3333Z" fill="black"/>
<path d="M14.5399 18.28H18.5133V19.2133H14.5399V18.28ZM7.22659 8.16C5.38088 8.19088 3.56718 8.64715 1.92659 9.49333C1.74816 9.58758 1.5987 9.72854 1.4942 9.90116C1.38969 10.0738 1.33406 10.2715 1.33325 10.4733V12.54C1.33325 12.7168 1.40349 12.8864 1.52851 13.0114C1.65354 13.1364 1.82311 13.2067 1.99992 13.2067C2.17673 13.2067 2.3463 13.1364 2.47132 13.0114C2.59635 12.8864 2.66659 12.7168 2.66659 12.54V10.6067C4.23412 9.82641 5.96963 9.44405 7.71992 9.49333C7.49109 9.07543 7.32488 8.62619 7.22659 8.16ZM22.0733 9.48666C20.6018 8.7148 18.9847 8.26056 17.3266 8.15333C17.2286 8.61866 17.0647 9.06762 16.8399 9.48666C18.4019 9.52427 19.9363 9.90673 21.3333 10.6067V12.54C21.3333 12.7168 21.4035 12.8864 21.5285 13.0114C21.6535 13.1364 21.8231 13.2067 21.9999 13.2067C22.1767 13.2067 22.3463 13.1364 22.4713 13.0114C22.5963 12.8864 22.6666 12.7168 22.6666 12.54V10.4733C22.667 10.2704 22.6119 10.0712 22.5074 9.89735C22.4028 9.72345 22.2527 9.58144 22.0733 9.48666ZM7.10659 7.07333V6.62666C6.58433 6.55677 6.10915 6.28815 5.77997 5.87673C5.45078 5.4653 5.29295 4.94277 5.33934 4.4179C5.38573 3.89304 5.63276 3.40628 6.029 3.05897C6.42524 2.71165 6.94017 2.53054 7.46659 2.55333C8.01413 2.55234 8.54041 2.76524 8.93325 3.14666C9.28001 2.86101 9.66066 2.61918 10.0666 2.42666C9.61299 1.9051 9.01201 1.53322 8.34284 1.36004C7.67368 1.18686 6.96774 1.22051 6.31808 1.45656C5.66842 1.6926 5.10553 2.11996 4.70361 2.6823C4.30168 3.24464 4.07958 3.91557 4.06659 4.60666C4.08058 5.4525 4.40938 6.26274 4.98879 6.87913C5.56819 7.49551 6.35656 7.87376 7.19992 7.94C7.1433 7.65443 7.11206 7.36441 7.10659 7.07333ZM16.5133 1.22C16.0551 1.2201 15.6016 1.31153 15.1792 1.48896C14.7568 1.66639 14.374 1.92624 14.0533 2.25333C14.5035 2.41763 14.9296 2.64187 15.3199 2.92C15.6312 2.70395 15.9952 2.57642 16.3732 2.551C16.7512 2.52559 17.129 2.60324 17.4664 2.77568C17.8037 2.94812 18.088 3.20888 18.2888 3.53016C18.4896 3.85144 18.5994 4.2212 18.6066 4.6C18.6024 4.98909 18.4881 5.36904 18.2769 5.69585C18.0657 6.02266 17.7663 6.28298 17.4133 6.44666C17.4403 6.65221 17.4537 6.85934 17.4533 7.06666C17.4512 7.33463 17.4289 7.60205 17.3866 7.86666C18.1128 7.67995 18.757 7.25838 19.2188 6.66757C19.6806 6.07676 19.9341 5.34985 19.9399 4.6C19.9311 3.6982 19.5658 2.83653 18.9237 2.20322C18.2817 1.56991 17.4151 1.21643 16.5133 1.22Z" fill="black"/>
</svg>
