<svg width="24" height="24" viewBox="0 0 24 24" fill="none" xmlns="http://www.w3.org/2000/svg">
<g clip-path="url(#clip0_7_153)">
<path d="M4.00008 9.07335H9.07341V4.00002H16.0001V9.58669H17.3334V4.00002C17.3334 3.6464 17.1929 3.30726 16.9429 3.05721C16.6928 2.80716 16.3537 2.66669 16.0001 2.66669H7.24675L2.66675 7.24669V20C2.66675 20.3536 2.80722 20.6928 3.05727 20.9428C3.30732 21.1929 3.64646 21.3334 4.00008 21.3334H16.0001C16.3537 21.3334 16.6928 21.1929 16.9429 20.9428C17.1929 20.6928 17.3334 20.3536 17.3334 20H4.00008V9.07335ZM4.00008 7.79335L7.79341 4.00002H8.00008V8.00002H4.00008V7.79335Z" fill="black"/>
<path d="M18.8799 10.9C18.7524 10.7908 18.5883 10.7337 18.4205 10.7402C18.2528 10.7467 18.0936 10.8162 17.9749 10.9349C17.8561 11.0537 17.7866 11.2128 17.7801 11.3806C17.7736 11.5484 17.8307 11.7125 17.9399 11.84L20.1066 14H11.9999C11.8231 14 11.6535 14.0702 11.5285 14.1953C11.4035 14.3203 11.3333 14.4898 11.3333 14.6667C11.3333 14.8435 11.4035 15.013 11.5285 15.1381C11.6535 15.2631 11.8231 15.3333 11.9999 15.3333H20.1266L17.9399 17.52C17.8701 17.5798 17.8134 17.6533 17.7734 17.736C17.7334 17.8187 17.7109 17.9088 17.7074 18.0006C17.7038 18.0924 17.7193 18.184 17.7528 18.2695C17.7863 18.3551 17.8372 18.4328 17.9022 18.4978C17.9671 18.5627 18.0448 18.6136 18.1304 18.6471C18.2159 18.6806 18.3075 18.6961 18.3993 18.6925C18.4911 18.689 18.5812 18.6665 18.6639 18.6265C18.7466 18.5865 18.8202 18.5298 18.8799 18.46L22.6666 14.6667L18.8799 10.9Z" fill="black"/>
</g>
<defs>
<clipPath id="clip0_7_153">
<rect width="24" height="24" fill="white"/>
</clipPath>
</defs>
</svg>
