<svg width="24" height="24" viewBox="0 0 24 24" fill="none" xmlns="http://www.w3.org/2000/svg">
<path opacity="0.54" d="M3 11.4454C3 9.90247 3.71236 8.44594 4.9303 7.49866L8.9303 4.38755C10.7359 2.98323 13.2642 2.98323 15.0697 4.38755L19.0697 7.49866C20.2876 8.44594 21 9.90247 21 11.4454V20C21 20.5304 20.7893 21.0391 20.4142 21.4142C20.0391 21.7893 19.5304 22 19 22H5C4.46957 22 3.96086 21.7893 3.58579 21.4142C3.21071 21.0391 3 20.5304 3 20V11.4454Z" stroke="black" stroke-linecap="round" stroke-linejoin="round"/>
<path d="M9 22V15C9 13.3431 10.3431 12 12 12V12C13.6569 12 15 13.3431 15 15V22" stroke="black" stroke-linecap="round" stroke-linejoin="round"/>
</svg>
