<svg width="24" height="24" viewBox="0 0 24 24" fill="none" xmlns="http://www.w3.org/2000/svg">
<path d="M12.0002 8.24999C11.0056 8.24999 10.0518 8.64508 9.34855 9.34834C8.64529 10.0516 8.2502 11.0054 8.2502 12C8.2502 12.9946 8.64529 13.9484 9.34855 14.6516C10.0518 15.3549 11.0056 15.75 12.0002 15.75C12.9948 15.75 13.9486 15.3549 14.6519 14.6516C15.3551 13.9484 15.7502 12.9946 15.7502 12C15.7502 11.0054 15.3551 10.0516 14.6519 9.34834C13.9486 8.64508 12.9948 8.24999 12.0002 8.24999ZM9.5002 12C9.5002 11.3369 9.76359 10.7011 10.2324 10.2322C10.7013 9.76338 11.3372 9.49999 12.0002 9.49999C12.6632 9.49999 13.2991 9.76338 13.768 10.2322C14.2368 10.7011 14.5002 11.3369 14.5002 12C14.5002 12.663 14.2368 13.2989 13.768 13.7678C13.2991 14.2366 12.6632 14.5 12.0002 14.5C11.3372 14.5 10.7013 14.2366 10.2324 13.7678C9.76359 13.2989 9.5002 12.663 9.5002 12ZM9.7472 21.734C10.4867 21.9105 11.2437 21.9995 12.0037 21.9995C12.7621 21.9988 13.5177 21.9092 14.2552 21.7325C14.4491 21.6858 14.6239 21.5805 14.7557 21.4309C14.8876 21.2813 14.9702 21.0947 14.9922 20.8965L15.1612 19.361C15.19 19.0865 15.3156 18.8312 15.5157 18.641C15.7158 18.4509 15.9771 18.3383 16.2527 18.3235C16.4362 18.3155 16.6187 18.35 16.7867 18.4235L18.1902 19.039C18.3122 19.0939 18.4444 19.1228 18.5782 19.1236C18.712 19.1245 18.8445 19.0974 18.9672 19.044C19.0907 18.9915 19.2012 18.9135 19.2922 18.815C20.3238 17.7023 21.0942 16.3736 21.5472 14.9255C21.6066 14.7334 21.6048 14.5275 21.5421 14.3365C21.4794 14.1454 21.3589 13.9785 21.1972 13.859L19.9502 12.939C19.8017 12.8311 19.6808 12.6896 19.5974 12.5261C19.5141 12.3625 19.4706 12.1816 19.4706 11.998C19.4706 11.8144 19.5141 11.6335 19.5974 11.4699C19.6808 11.3064 19.8017 11.1649 19.9502 11.057L21.1932 10.139C21.3554 10.0193 21.4762 9.85198 21.539 9.6604C21.6017 9.46882 21.6032 9.26245 21.5432 9.06999C21.0909 7.62135 20.3194 6.29259 19.2857 5.18149C19.1486 5.03539 18.9697 4.93533 18.7734 4.89504C18.5772 4.85475 18.3733 4.87622 18.1897 4.95649L16.7867 5.57449C16.6417 5.63999 16.4837 5.67449 16.3237 5.67449C16.0358 5.6737 15.7582 5.56677 15.5442 5.37415C15.3302 5.18153 15.1947 4.91675 15.1637 4.63049L14.9937 3.10049C14.9717 2.89975 14.8877 2.71088 14.7532 2.56021C14.6188 2.40954 14.4406 2.30459 14.2437 2.25999C13.5099 2.0963 12.761 2.00933 12.0092 2.00049C11.2523 2.0095 10.4983 2.09663 9.7592 2.26049C9.56238 2.30463 9.38428 2.40918 9.2498 2.55953C9.11533 2.70987 9.03121 2.89848 9.0092 3.09899L8.8392 4.62999C8.8069 4.91673 8.67021 5.18155 8.4552 5.37399C8.2355 5.56042 7.95874 5.66625 7.6707 5.67399C7.51182 5.67388 7.35468 5.64085 7.2092 5.57699L5.8092 4.95899C5.62505 4.87792 5.42026 4.85613 5.22317 4.89662C5.02609 4.93711 4.84647 5.03789 4.7092 5.18499C3.67718 6.29655 2.90672 7.62478 2.4542 9.07249C2.39434 9.26488 2.39588 9.47114 2.4586 9.66262C2.52132 9.8541 2.64211 10.0213 2.8042 10.141L4.0482 11.059C4.27043 11.2232 4.42748 11.4607 4.49161 11.7295C4.55574 11.9983 4.52284 12.2811 4.3987 12.528C4.31612 12.6917 4.19623 12.8337 4.0487 12.9425L2.8037 13.862C2.64181 13.9816 2.52115 14.1486 2.45843 14.3399C2.39572 14.5312 2.39407 14.7372 2.4537 14.9295C2.90496 16.3788 3.67554 17.7084 4.7087 18.8205C4.84517 18.9677 5.02413 19.0686 5.22066 19.1093C5.41719 19.15 5.62152 19.1284 5.8052 19.0475L7.2142 18.429C7.3597 18.365 7.5167 18.332 7.6757 18.332H7.6797C7.96656 18.3326 8.2432 18.4385 8.45706 18.6297C8.67092 18.8209 8.80709 19.084 8.8397 19.369L9.0087 20.8975C9.03071 21.096 9.11345 21.2828 9.24563 21.4326C9.3778 21.5823 9.55297 21.6875 9.7472 21.734ZM13.7792 20.5615C12.6092 20.8115 11.3992 20.8115 10.2292 20.5615L10.0772 19.2305C10.0109 18.64 9.72966 18.0945 9.28705 17.698C8.84445 17.3015 8.27143 17.0817 7.6772 17.0805H7.6722C7.34069 17.0785 7.0125 17.1466 6.7092 17.2805L5.4862 17.817C4.69239 16.9225 4.08701 15.8772 3.7062 14.7435L4.7887 13.9435C5.09376 13.7186 5.34171 13.4251 5.51259 13.0868C5.68348 12.7485 5.7725 12.3748 5.7725 11.9957C5.7725 11.6167 5.68348 11.243 5.51259 10.9047C5.34171 10.5664 5.09376 10.2729 4.7887 10.048L3.7067 9.24799C4.08933 8.11606 4.69473 7.07221 5.4872 6.17799L6.7032 6.71399C7.00701 6.84938 7.33609 6.91875 7.6687 6.91749H7.6737C8.26941 6.91625 8.84381 6.69579 9.28738 6.29815C9.73094 5.90051 10.0126 5.35352 10.0787 4.76149L10.2287 3.43149C10.8153 3.31403 11.4115 3.2511 12.0097 3.24349C12.6032 3.25099 13.1947 3.31349 13.7767 3.43099L13.9267 4.76049C13.9909 5.35249 14.2713 5.89998 14.7141 6.29802C15.157 6.69606 15.7312 6.91664 16.3267 6.91749C16.6625 6.92539 16.9956 6.85521 17.2997 6.71249L18.5147 6.17699C19.3085 7.07052 19.9142 8.11478 20.2957 9.24749L19.2172 10.044C18.91 10.2679 18.66 10.5613 18.4877 10.9001C18.3153 11.239 18.2255 11.6138 18.2255 11.994C18.2255 12.3742 18.3153 12.749 18.4877 13.0878C18.66 13.4267 18.91 13.7201 19.2172 13.944L20.2997 14.744C19.9172 15.8759 19.312 16.9197 18.5197 17.814L17.2997 17.279C16.9524 17.1249 16.5736 17.0551 16.1941 17.0753C15.8147 17.0956 15.4454 17.2052 15.1165 17.3954C14.7875 17.5855 14.5081 17.8507 14.3012 18.1694C14.0942 18.488 13.9656 18.8511 13.9257 19.229L13.7792 20.5615Z" fill="white"/>
</svg>
