<svg width="24" height="24" viewBox="0 0 24 24" fill="none" xmlns="http://www.w3.org/2000/svg">
<path d="M12 8.24999C11.0054 8.24999 10.0516 8.64508 9.34831 9.34834C8.64505 10.0516 8.24996 11.0054 8.24996 12C8.24996 12.9946 8.64505 13.9484 9.34831 14.6516C10.0516 15.3549 11.0054 15.75 12 15.75C12.9945 15.75 13.9483 15.3549 14.6516 14.6516C15.3549 13.9484 15.75 12.9946 15.75 12C15.75 11.0054 15.3549 10.0516 14.6516 9.34834C13.9483 8.64508 12.9945 8.24999 12 8.24999ZM9.49996 12C9.49996 11.3369 9.76335 10.7011 10.2322 10.2322C10.701 9.76338 11.3369 9.49999 12 9.49999C12.663 9.49999 13.2989 9.76338 13.7677 10.2322C14.2366 10.7011 14.5 11.3369 14.5 12C14.5 12.663 14.2366 13.2989 13.7677 13.7678C13.2989 14.2366 12.663 14.5 12 14.5C11.3369 14.5 10.701 14.2366 10.2322 13.7678C9.76335 13.2989 9.49996 12.663 9.49996 12ZM9.74696 21.734C10.4865 21.9105 11.2435 21.9995 12.0035 21.9995C12.7618 21.9988 13.5175 21.9092 14.255 21.7325C14.4488 21.6858 14.6236 21.5805 14.7555 21.4309C14.8874 21.2813 14.9699 21.0947 14.992 20.8965L15.161 19.361C15.1897 19.0865 15.3154 18.8312 15.5155 18.641C15.7155 18.4509 15.9768 18.3383 16.2525 18.3235C16.436 18.3155 16.6185 18.35 16.7865 18.4235L18.19 19.039C18.312 19.0939 18.4441 19.1228 18.5779 19.1236C18.7117 19.1245 18.8442 19.0974 18.967 19.044C19.0905 18.9915 19.201 18.9135 19.292 18.815C20.3236 17.7023 21.0939 16.3736 21.547 14.9255C21.6064 14.7334 21.6046 14.5275 21.5419 14.3365C21.4792 14.1454 21.3587 13.9785 21.197 13.859L19.95 12.939C19.8014 12.8311 19.6806 12.6896 19.5972 12.5261C19.5138 12.3625 19.4704 12.1816 19.4704 11.998C19.4704 11.8144 19.5138 11.6335 19.5972 11.4699C19.6806 11.3064 19.8014 11.1649 19.95 11.057L21.193 10.139C21.3551 10.0193 21.476 9.85198 21.5387 9.6604C21.6015 9.46882 21.6029 9.26245 21.543 9.06999C21.0906 7.62135 20.3192 6.29259 19.2855 5.18149C19.1484 5.03539 18.9694 4.93533 18.7732 4.89504C18.5769 4.85475 18.373 4.87622 18.1895 4.95649L16.7865 5.57449C16.6415 5.63999 16.4835 5.67449 16.3235 5.67449C16.0355 5.6737 15.758 5.56677 15.544 5.37415C15.3299 5.18153 15.1945 4.91675 15.1635 4.63049L14.9935 3.10049C14.9715 2.89975 14.8874 2.71088 14.753 2.56021C14.6185 2.40954 14.4404 2.30459 14.2435 2.25999C13.5096 2.0963 12.7608 2.00933 12.009 2.00049C11.252 2.0095 10.498 2.09663 9.75896 2.26049C9.56214 2.30463 9.38404 2.40918 9.24956 2.55953C9.11509 2.70987 9.03096 2.89848 9.00896 3.09899L8.83896 4.62999C8.80665 4.91673 8.66997 5.18155 8.45496 5.37399C8.23526 5.56042 7.95849 5.66625 7.67046 5.67399C7.51158 5.67388 7.35444 5.64085 7.20896 5.57699L5.80896 4.95899C5.62481 4.87792 5.42001 4.85613 5.22293 4.89662C5.02584 4.93711 4.84623 5.03789 4.70896 5.18499C3.67693 6.29655 2.90647 7.62478 2.45396 9.07249C2.3941 9.26488 2.39563 9.47114 2.45835 9.66262C2.52107 9.8541 2.64187 10.0213 2.80396 10.141L4.04796 11.059C4.27019 11.2232 4.42723 11.4607 4.49137 11.7295C4.5555 11.9983 4.52259 12.2811 4.39846 12.528C4.31588 12.6917 4.19599 12.8337 4.04846 12.9425L2.80346 13.862C2.64157 13.9816 2.5209 14.1486 2.45819 14.3399C2.39548 14.5312 2.39382 14.7372 2.45346 14.9295C2.90472 16.3788 3.6753 17.7084 4.70846 18.8205C4.84493 18.9677 5.02388 19.0686 5.22042 19.1093C5.41695 19.15 5.62128 19.1284 5.80496 19.0475L7.21396 18.429C7.35946 18.365 7.51646 18.332 7.67546 18.332H7.67946C7.96631 18.3326 8.24296 18.4385 8.45682 18.6297C8.67068 18.8209 8.80685 19.084 8.83946 19.369L9.00846 20.8975C9.03047 21.096 9.11321 21.2828 9.24538 21.4326C9.37756 21.5823 9.55272 21.6875 9.74696 21.734ZM13.779 20.5615C12.609 20.8115 11.399 20.8115 10.229 20.5615L10.077 19.2305C10.0107 18.64 9.72941 18.0945 9.28681 17.698C8.8442 17.3015 8.27119 17.0817 7.67696 17.0805H7.67196C7.34044 17.0785 7.01226 17.1466 6.70896 17.2805L5.48596 17.817C4.69215 16.9225 4.08676 15.8772 3.70596 14.7435L4.78846 13.9435C5.09351 13.7186 5.34147 13.4251 5.51235 13.0868C5.68323 12.7485 5.77226 12.3748 5.77226 11.9957C5.77226 11.6167 5.68323 11.243 5.51235 10.9047C5.34147 10.5664 5.09351 10.2729 4.78846 10.048L3.70646 9.24799C4.08908 8.11606 4.69448 7.07221 5.48696 6.17799L6.70296 6.71399C7.00676 6.84938 7.33585 6.91875 7.66846 6.91749H7.67346C8.26916 6.91625 8.84357 6.69579 9.28713 6.29815C9.7307 5.90051 10.0124 5.35352 10.0785 4.76149L10.2285 3.43149C10.8151 3.31403 11.4113 3.2511 12.0095 3.24349C12.603 3.25099 13.1945 3.31349 13.7765 3.43099L13.9265 4.76049C13.9906 5.35249 14.271 5.89998 14.7139 6.29802C15.1568 6.69606 15.731 6.91664 16.3265 6.91749C16.6623 6.92539 16.9954 6.85521 17.2995 6.71249L18.5145 6.17699C19.3083 7.07052 19.914 8.11478 20.2955 9.24749L19.217 10.044C18.9097 10.2679 18.6598 10.5613 18.4874 10.9001C18.3151 11.239 18.2253 11.6138 18.2253 11.994C18.2253 12.3742 18.3151 12.749 18.4874 13.0878C18.6598 13.4267 18.9097 13.7201 19.217 13.944L20.2995 14.744C19.917 15.8759 19.3118 16.9197 18.5195 17.814L17.2995 17.279C16.9521 17.1249 16.5733 17.0551 16.1939 17.0753C15.8145 17.0956 15.4452 17.2052 15.1162 17.3954C14.7872 17.5855 14.5079 17.8507 14.3009 18.1694C14.094 18.488 13.9653 18.8511 13.9255 19.229L13.779 20.5615Z" fill="black"/>
</svg>
