<svg width="149" height="49" viewBox="0 0 149 49" fill="none" xmlns="http://www.w3.org/2000/svg">
<path d="M31.25 0C31.8023 8.10924e-05 32.332 0.219844 32.7227 0.610352C33.1134 1.00105 33.333 1.53145 33.333 2.08398V4.16699H35.416C37.0736 4.16699 38.6638 4.82594 39.8359 5.99805C41.0078 7.17011 41.666 8.75954 41.666 10.417V22.917H37.5V20.834H4.16602V39.584C4.16609 40.1363 4.38585 40.666 4.77637 41.0566C5.16707 41.4473 5.69747 41.667 6.25 41.667H24.833V45.834H6.25C4.5924 45.834 3.00218 45.175 1.83008 44.0029C0.658164 42.8309 7.58272e-05 41.2414 0 39.584V10.417C1.06704e-05 8.75955 0.658183 7.17011 1.83008 5.99805C3.00218 4.82594 4.5924 4.16699 6.25 4.16699H8.33301V2.08398C8.33301 1.53145 8.55266 1.00105 8.94336 0.610352C9.33396 0.21984 9.86369 9.14413e-05 10.416 0C10.9685 0 11.499 0.21967 11.8896 0.610352C12.2803 1.00105 12.5 1.53145 12.5 2.08398V4.16699H29.166V2.08398C29.166 1.53145 29.3857 1.00105 29.7764 0.610352C30.1671 0.219658 30.6975 0 31.25 0ZM9.61914 33.4922C9.9998 33.3345 10.4191 33.2936 10.8232 33.374C11.2272 33.4545 11.5984 33.6531 11.8896 33.9443C12.1808 34.2356 12.3796 34.6068 12.46 35.0107C12.5403 35.4147 12.4984 35.8333 12.3408 36.2139C12.1832 36.5945 11.9167 36.9205 11.5742 37.1494C11.2316 37.3783 10.8281 37.5 10.416 37.5C9.86374 37.4999 9.33395 37.2811 8.94336 36.8906C8.55266 36.4999 8.33301 35.9695 8.33301 35.417C8.33302 35.005 8.45566 34.6024 8.68457 34.2598C8.91349 33.9172 9.23849 33.6499 9.61914 33.4922ZM20.0361 33.4922C20.4167 33.3346 20.8353 33.2937 21.2393 33.374C21.6434 33.4544 22.0153 33.653 22.3066 33.9443C22.5977 34.2356 22.7956 34.6068 22.876 35.0107C22.9563 35.4147 22.9154 35.8333 22.7578 36.2139C22.6001 36.5945 22.3328 36.9205 21.9902 37.1494C21.6477 37.3782 21.245 37.5 20.833 37.5C20.2807 37.5 19.751 37.281 19.3604 36.8906C18.9697 36.4999 18.75 35.9695 18.75 35.417C18.75 35.0051 18.8718 34.6023 19.1006 34.2598C19.3295 33.9172 19.6555 33.6499 20.0361 33.4922ZM9.61914 25.1592C9.99982 25.0015 10.4191 24.9597 10.8232 25.04C11.2272 25.1205 11.5984 25.3191 11.8896 25.6104C12.181 25.9017 12.3796 26.2736 12.46 26.6777C12.5402 27.0817 12.4984 27.5003 12.3408 27.8809C12.1831 28.2615 11.9168 28.5875 11.5742 28.8164C11.2316 29.0453 10.8281 29.167 10.416 29.167C9.86361 29.1669 9.33398 28.9473 8.94336 28.5566C8.55274 28.166 8.33308 27.6364 8.33301 27.084C8.33301 26.6719 8.45565 26.2684 8.68457 25.9258C8.91346 25.5835 9.23868 25.3168 9.61914 25.1592ZM20.0361 25.1592C20.4167 25.0016 20.8353 24.9597 21.2393 25.04C21.6434 25.1204 22.0153 25.319 22.3066 25.6104C22.5979 25.9017 22.7956 26.2737 22.876 26.6777C22.9563 27.0817 22.9154 27.5003 22.7578 27.8809C22.6001 28.2615 22.3328 28.5875 21.9902 28.8164C21.6477 29.0452 21.2449 29.167 20.833 29.167C20.2805 29.167 19.751 28.9473 19.3604 28.5566C18.9697 28.166 18.7501 27.6364 18.75 27.084C18.75 26.6719 18.8717 26.2684 19.1006 25.9258C19.3295 25.5833 19.6555 25.3168 20.0361 25.1592ZM6.25 8.33398C5.69747 8.33398 5.16707 8.55364 4.77637 8.94434C4.38587 9.335 4.16603 9.86462 4.16602 10.417V16.667H37.5V10.417C37.5 9.86461 37.2802 9.335 36.8896 8.94434C36.4989 8.55364 35.9686 8.33398 35.416 8.33398H33.333V10.417C33.333 10.9695 33.1134 11.4999 32.7227 11.8906C32.3321 12.2811 31.8023 12.4999 31.25 12.5C30.6975 12.5 30.1671 12.2812 29.7764 11.8906C29.3857 11.4999 29.166 10.9695 29.166 10.417V8.33398H12.5V10.417C12.5 10.9695 12.2803 11.4999 11.8896 11.8906C11.499 12.2812 10.9685 12.5 10.416 12.5C9.86374 12.4999 9.33395 12.2811 8.94336 11.8906C8.55266 11.4999 8.33301 10.9695 8.33301 10.417V8.33398H6.25Z" fill="#027BF7"/>
<path d="M39.072 34.4548L34.4544 31.7737L35.3027 24.3988C35.3385 24.1779 35.3324 23.941 35.2851 23.7103C35.2377 23.4795 35.1505 23.2623 35.0318 23.0791C34.9131 22.8959 34.7666 22.7527 34.6062 22.6628C34.4457 22.573 34.2765 22.5394 34.1143 22.5653C33.8989 22.6006 33.7073 22.7394 33.5705 22.959L33.5177 23.0526L28.0104 33.9922C27.9277 34.1571 27.876 34.3517 27.8594 34.5605C27.8427 34.7694 27.8617 34.9867 27.9147 35.1954C27.9677 35.4041 28.0533 35.5983 28.1647 35.7628C28.2761 35.9274 28.4103 36.0576 28.5567 36.1432L33.1756 38.8269L32.3172 46.2867C32.2812 46.5911 32.3231 46.9166 32.4358 47.2082C32.5485 47.4999 32.7251 47.7399 32.9359 47.8879C33.1467 48.0358 33.3788 48.0827 33.593 48.0205C33.8073 47.9584 33.9906 47.791 34.1122 47.5467L39.619 36.6043C39.7014 36.4393 39.7529 36.2447 39.7693 36.036C39.7858 35.8273 39.7667 35.6101 39.7137 35.4017C39.6606 35.1932 39.575 34.9991 39.4636 34.8348C39.3523 34.6705 39.2182 34.5404 39.072 34.4548Z" fill="#027BF7"/>
<path d="M56.7383 16.6836V13.7891H64.2148V20.6328C63.4883 21.3359 62.4336 21.957 61.0508 22.4961C59.6758 23.0273 58.2812 23.293 56.8672 23.293C55.0703 23.293 53.5039 22.918 52.168 22.168C50.832 21.4102 49.8281 20.332 49.1562 18.9336C48.4844 17.5273 48.1484 16 48.1484 14.3516C48.1484 12.5625 48.5234 10.9727 49.2734 9.58203C50.0234 8.19141 51.1211 7.125 52.5664 6.38281C53.668 5.8125 55.0391 5.52734 56.6797 5.52734C58.8125 5.52734 60.4766 5.97656 61.6719 6.875C62.875 7.76562 63.6484 9 63.9922 10.5781L60.5469 11.2227C60.3047 10.3789 59.8477 9.71484 59.1758 9.23047C58.5117 8.73828 57.6797 8.49219 56.6797 8.49219C55.1641 8.49219 53.957 8.97266 53.0586 9.93359C52.168 10.8945 51.7227 12.3203 51.7227 14.2109C51.7227 16.25 52.1758 17.7812 53.082 18.8047C53.9883 19.8203 55.1758 20.3281 56.6445 20.3281C57.3711 20.3281 58.0977 20.1875 58.8242 19.9062C59.5586 19.6172 60.1875 19.2695 60.7109 18.8633V16.6836H56.7383ZM71.7547 23H68.4617V10.5547H71.5203V12.3242C72.0438 11.4883 72.5125 10.9375 72.9266 10.6719C73.3484 10.4062 73.825 10.2734 74.3563 10.2734C75.1063 10.2734 75.8289 10.4805 76.5242 10.8945L75.5047 13.7656C74.95 13.4062 74.4344 13.2266 73.9578 13.2266C73.4969 13.2266 73.1063 13.3555 72.7859 13.6133C72.4656 13.8633 72.2117 14.3203 72.0242 14.9844C71.8445 15.6484 71.7547 17.0391 71.7547 19.1562V23ZM81.6148 14.3516L78.6266 13.8125C78.9625 12.6094 79.5406 11.7188 80.3609 11.1406C81.1812 10.5625 82.4 10.2734 84.0172 10.2734C85.4859 10.2734 86.5797 10.4492 87.2984 10.8008C88.0172 11.1445 88.5211 11.5859 88.8102 12.125C89.107 12.6562 89.2555 13.6367 89.2555 15.0664L89.2203 18.9102C89.2203 20.0039 89.2711 20.8125 89.3727 21.3359C89.482 21.8516 89.6812 22.4062 89.9703 23H86.7125C86.6266 22.7812 86.5211 22.457 86.3961 22.0273C86.3414 21.832 86.3023 21.7031 86.2789 21.6406C85.7164 22.1875 85.1148 22.5977 84.4742 22.8711C83.8336 23.1445 83.15 23.2812 82.4234 23.2812C81.1422 23.2812 80.1305 22.9336 79.3883 22.2383C78.6539 21.543 78.2867 20.6641 78.2867 19.6016C78.2867 18.8984 78.4547 18.2734 78.7906 17.7266C79.1266 17.1719 79.5953 16.75 80.1969 16.4609C80.8062 16.1641 81.6812 15.9062 82.8219 15.6875C84.3609 15.3984 85.4273 15.1289 86.0211 14.8789V14.5508C86.0211 13.918 85.8648 13.4688 85.5523 13.2031C85.2398 12.9297 84.65 12.793 83.7828 12.793C83.1969 12.793 82.7398 12.9102 82.4117 13.1445C82.0836 13.3711 81.818 13.7734 81.6148 14.3516ZM86.0211 17.0234C85.5992 17.1641 84.9312 17.332 84.0172 17.5273C83.1031 17.7227 82.5055 17.9141 82.2242 18.1016C81.7945 18.4062 81.5797 18.793 81.5797 19.2617C81.5797 19.7227 81.7516 20.1211 82.0953 20.457C82.4391 20.793 82.8766 20.9609 83.4078 20.9609C84.0016 20.9609 84.568 20.7656 85.107 20.375C85.5055 20.0781 85.7672 19.7148 85.8922 19.2852C85.9781 19.0039 86.0211 18.4688 86.0211 17.6797V17.0234ZM92.2719 10.5547H94.1V9.61719C94.1 8.57031 94.2094 7.78906 94.4281 7.27344C94.6547 6.75781 95.0648 6.33984 95.6586 6.01953C96.2602 5.69141 97.018 5.52734 97.932 5.52734C98.8695 5.52734 99.7875 5.66797 100.686 5.94922L100.241 8.24609C99.7172 8.12109 99.2133 8.05859 98.7289 8.05859C98.2523 8.05859 97.9086 8.17188 97.6977 8.39844C97.4945 8.61719 97.393 9.04297 97.393 9.67578V10.5547H99.8539V13.1445H97.393V23H94.1V13.1445H92.2719V10.5547ZM102.905 8.86719V5.82031H106.198V8.86719H102.905ZM102.905 23V10.5547H106.198V23H102.905ZM110.668 23V5.82031H113.961V14.9375L117.816 10.5547H121.871L117.617 15.1016L122.176 23H118.625L115.496 17.4102L113.961 19.0156V23H110.668ZM48.6992 45V27.8203H53.8906L57.0078 39.5391L60.0898 27.8203H65.293V45H62.0703V31.4766L58.6602 45H55.3203L51.9219 31.4766V45H48.6992ZM72.3758 36.3516L69.3875 35.8125C69.7234 34.6094 70.3016 33.7188 71.1219 33.1406C71.9422 32.5625 73.1609 32.2734 74.7781 32.2734C76.2469 32.2734 77.3406 32.4492 78.0594 32.8008C78.7781 33.1445 79.282 33.5859 79.5711 34.125C79.868 34.6562 80.0164 35.6367 80.0164 37.0664L79.9813 40.9102C79.9813 42.0039 80.032 42.8125 80.1336 43.3359C80.243 43.8516 80.4422 44.4062 80.7313 45H77.4734C77.3875 44.7812 77.282 44.457 77.157 44.0273C77.1023 43.832 77.0633 43.7031 77.0398 43.6406C76.4773 44.1875 75.8758 44.5977 75.2352 44.8711C74.5945 45.1445 73.9109 45.2812 73.1844 45.2812C71.9031 45.2812 70.8914 44.9336 70.1492 44.2383C69.4148 43.543 69.0477 42.6641 69.0477 41.6016C69.0477 40.8984 69.2156 40.2734 69.5516 39.7266C69.8875 39.1719 70.3563 38.75 70.9578 38.4609C71.5672 38.1641 72.4422 37.9062 73.5828 37.6875C75.1219 37.3984 76.1883 37.1289 76.782 36.8789V36.5508C76.782 35.918 76.6258 35.4688 76.3133 35.2031C76.0008 34.9297 75.4109 34.793 74.5438 34.793C73.9578 34.793 73.5008 34.9102 73.1727 35.1445C72.8445 35.3711 72.5789 35.7734 72.3758 36.3516ZM76.782 39.0234C76.3602 39.1641 75.6922 39.332 74.7781 39.5273C73.8641 39.7227 73.2664 39.9141 72.9852 40.1016C72.5555 40.4062 72.3406 40.793 72.3406 41.2617C72.3406 41.7227 72.5125 42.1211 72.8563 42.457C73.2 42.793 73.6375 42.9609 74.1688 42.9609C74.7625 42.9609 75.3289 42.7656 75.868 42.375C76.2664 42.0781 76.5281 41.7148 76.6531 41.2852C76.7391 41.0039 76.782 40.4688 76.782 39.6797V39.0234ZM83.3141 41.4492L86.6188 40.9453C86.7594 41.5859 87.0445 42.0742 87.4742 42.4102C87.9039 42.7383 88.5055 42.9023 89.2789 42.9023C90.1305 42.9023 90.7711 42.7461 91.2008 42.4336C91.4898 42.2148 91.6344 41.9219 91.6344 41.5547C91.6344 41.3047 91.5563 41.0977 91.4 40.9336C91.2359 40.7773 90.8688 40.6328 90.2984 40.5C87.6422 39.9141 85.9586 39.3789 85.2477 38.8945C84.2633 38.2227 83.7711 37.2891 83.7711 36.0938C83.7711 35.0156 84.1969 34.1094 85.0484 33.375C85.9 32.6406 87.2203 32.2734 89.0094 32.2734C90.7125 32.2734 91.9781 32.5508 92.8063 33.1055C93.6344 33.6602 94.2047 34.4805 94.5172 35.5664L91.4117 36.1406C91.2789 35.6562 91.025 35.2852 90.65 35.0273C90.2828 34.7695 89.7555 34.6406 89.068 34.6406C88.2008 34.6406 87.5797 34.7617 87.2047 35.0039C86.9547 35.1758 86.8297 35.3984 86.8297 35.6719C86.8297 35.9062 86.9391 36.1055 87.1578 36.2695C87.4547 36.4883 88.4781 36.7969 90.2281 37.1953C91.9859 37.5938 93.2125 38.082 93.9078 38.6602C94.5953 39.2461 94.9391 40.0625 94.9391 41.1094C94.9391 42.25 94.4625 43.2305 93.5094 44.0508C92.5563 44.8711 91.1461 45.2812 89.2789 45.2812C87.5836 45.2812 86.2398 44.9375 85.2477 44.25C84.2633 43.5625 83.6188 42.6289 83.3141 41.4492ZM104.741 32.5547V35.1797H102.491V40.1953C102.491 41.2109 102.51 41.8047 102.549 41.9766C102.596 42.1406 102.694 42.2773 102.842 42.3867C102.998 42.4961 103.186 42.5508 103.405 42.5508C103.709 42.5508 104.151 42.4453 104.729 42.2344L105.01 44.7891C104.245 45.1172 103.377 45.2812 102.409 45.2812C101.815 45.2812 101.28 45.1836 100.803 44.9883C100.327 44.7852 99.975 44.5273 99.7484 44.2148C99.5297 43.8945 99.3773 43.4648 99.2914 42.9258C99.2211 42.543 99.1859 41.7695 99.1859 40.6055V35.1797H97.6742V32.5547H99.1859V30.082L102.491 28.1602V32.5547H104.741ZM115.433 41.0391L118.714 41.5898C118.292 42.793 117.624 43.7109 116.71 44.3438C115.804 44.9688 114.667 45.2812 113.3 45.2812C111.136 45.2812 109.534 44.5742 108.495 43.1602C107.675 42.0273 107.265 40.5977 107.265 38.8711C107.265 36.8086 107.804 35.1953 108.882 34.0312C109.96 32.8594 111.323 32.2734 112.972 32.2734C114.823 32.2734 116.284 32.8867 117.355 34.1133C118.425 35.332 118.937 37.2031 118.89 39.7266H110.64C110.663 40.7031 110.929 41.4648 111.437 42.0117C111.945 42.5508 112.577 42.8203 113.335 42.8203C113.851 42.8203 114.284 42.6797 114.636 42.3984C114.987 42.1172 115.253 41.6641 115.433 41.0391ZM115.62 37.7109C115.597 36.7578 115.351 36.0352 114.882 35.543C114.413 35.043 113.843 34.793 113.171 34.793C112.452 34.793 111.859 35.0547 111.39 35.5781C110.921 36.1016 110.691 36.8125 110.698 37.7109H115.62ZM125.938 45H122.645V32.5547H125.703V34.3242C126.227 33.4883 126.695 32.9375 127.109 32.6719C127.531 32.4062 128.008 32.2734 128.539 32.2734C129.289 32.2734 130.012 32.4805 130.707 32.8945L129.688 35.7656C129.133 35.4062 128.617 35.2266 128.141 35.2266C127.68 35.2266 127.289 35.3555 126.969 35.6133C126.648 35.8633 126.395 36.3203 126.207 36.9844C126.027 37.6484 125.938 39.0391 125.938 41.1562V45Z" fill="#017AFB"/>
</svg>
