<svg width="25" height="25" viewBox="0 0 25 25" fill="none" xmlns="http://www.w3.org/2000/svg">
<path d="M12.5 22.5L11.5 19.5H4.5C3.95 19.5 3.47933 19.3043 3.088 18.913C2.69667 18.5217 2.50067 18.0507 2.5 17.5V4.5C2.5 3.95 2.696 3.47933 3.088 3.088C3.48 2.69667 3.95067 2.50067 4.5 2.5H10.5L11.375 5.5H20.5C21.0833 5.5 21.5627 5.68767 21.938 6.063C22.3133 6.43833 22.5007 6.91733 22.5 7.5V20.5C22.5 21.05 22.3127 21.521 21.938 21.913C21.5633 22.305 21.084 22.5007 20.5 22.5H12.5ZM7.65 15.1C8.8 15.1 9.746 14.7293 10.488 13.988C11.23 13.2467 11.6007 12.284 11.6 11.1C11.6 10.9667 11.596 10.846 11.588 10.738C11.58 10.63 11.559 10.5173 11.525 10.4H7.575V11.95H9.8C9.66667 12.4167 9.41233 12.7793 9.037 13.038C8.66167 13.2967 8.20767 13.4257 7.675 13.425C7.025 13.425 6.46667 13.1917 6 12.725C5.53333 12.2583 5.3 11.6833 5.3 11C5.3 10.3167 5.53333 9.74167 6 9.275C6.46667 8.80833 7.025 8.575 7.675 8.575C7.975 8.575 8.25833 8.62933 8.525 8.738C8.79167 8.84667 9.03333 9.009 9.25 9.225L10.475 8.05C10.125 7.68333 9.704 7.4 9.212 7.2C8.72 7 8.19933 6.9 7.65 6.9C6.53333 6.9 5.579 7.296 4.787 8.088C3.995 8.88 3.59933 9.85067 3.6 11C3.60067 12.1493 3.99667 13.1203 4.788 13.913C5.57933 14.7057 6.53333 15.1013 7.65 15.1ZM14.35 15.6L14.9 15.075C14.6667 14.7917 14.4543 14.5167 14.263 14.25C14.0717 13.9833 13.884 13.7 13.7 13.4L14.35 15.6ZM15.6 14.325C16.0667 13.775 16.421 13.25 16.663 12.75C16.905 12.25 17.0673 11.8583 17.15 11.575H13.175L13.475 12.625H14.475C14.6083 12.875 14.7667 13.146 14.95 13.438C15.1333 13.73 15.35 14.0257 15.6 14.325ZM13.5 21.5H20.5C20.8 21.5 21.0417 21.404 21.225 21.212C21.4083 21.02 21.5 20.7827 21.5 20.5V7.5C21.5 7.2 21.4083 6.95833 21.225 6.775C21.0417 6.59167 20.8 6.5 20.5 6.5H11.675L12.85 10.55H14.825V9.5H15.85V10.55H19.5V11.575H18.225C18.0583 12.2083 17.8083 12.825 17.475 13.425C17.1417 14.025 16.75 14.5833 16.3 15.1L19.025 17.775L18.3 18.5L15.6 15.8L14.7 16.725L15.5 19.5L13.5 21.5Z" fill="black"/>
</svg>
